<svg xmlns="http://www.w3.org/2000/svg" viewBox="0 0 333 52" xml:space="preserve"><path d="M30.3 32.7H332m-301.7-.3H332v.8H30.3zM240.6 8.6c.3 0 1.1-1.2 1.1-1.6s-.8-1.6-1.1-1.6c-.3 0-1.1 1.3-1.1 1.6s.8 1.6 1.1 1.6zM254.8 21v-5.2c0-2.4-.8-6-4.4-6-2.6 0-3.9 2.5-3.9 2.1v-1.8c0-.3-.2-.5-.3-.5-.6 0-1.1 1-3.2 1.7-.1 0-.5 0-.5.3 0 .7 2.1-.9 2.1 1.7v7.9c0 1.5-.7 1.6-1.3 1.7h-.1c-.5 0-1.7-.2-1.7-1.4V10.1c0-.3-.2-.5-.3-.5-.6 0-1 1.1-2.7 1.7-.1 0-.4.1-.4.2 0 .7 1.5-.6 1.5 1.8v7.5c.1 1.9-1 2.1-1.6 2.1-.9 0-.7.1-.7.4 0 .3.5.3 1.4.3.3 0 1-.1 1.9-.1 1.1 0 1.9.1 2.5.1.3 0 1.2-.1 2.6-.1 1.6 0 2.1.1 2.5.1.4 0 .9-.2.6-.4-.4-.4-2.4.1-2.4-2.1v-7.3c0-.5.9-2.5 3.2-2.5 2.2 0 3.1 2.4 3.1 4v6c0 2.3-.8 1.6-1.2 2.1-.2.3.1.4.5.4.3 0 .9-.1 1.9-.1 1.3 0 1.9.1 2.2.1.3 0 .8-.2.5-.4-.4-.8-1.8 0-1.8-2.4zM51 2.6c.4-.1.6-.2.6-.2 0-.3-.1-.3-.4-.3-.7 0-1.1.1-1.8.1s-1.3-.1-1.9-.1c-.4 0-.3.1-.3.3 0 .2.7.1 1.1.9.2.4.1 1.4-.1 2L43 19.5l-2.2-6.3-.9-2.2s-.1.1.5-1.8l1.2-3.6c.6-1.8 1.2-2.7 1.9-2.7 1 0 1-.6.2-.6-.7 0-1.2.1-1.8.1-.7 0-1-.1-1.8-.1-.3 0-.6.1-.5.3 0 .2.4.1.7.3.6.1.9 1.1.6 2.2l-1.4 4.6-1.6-4.3c-.3-.8-.8-2.6 0-2.8.8-.2.7-.5.2-.5-.9 0-1.4.1-2.2.1-.9 0-1.6-.1-2.5-.1-.2 0-.5 0-.4.4.1.2.5.1.8.3 1.1.7 1.3 1.6 1.7 2.6l2.4 6.7c.4 1.2.5.8.1 1.8l-2.1 5.7L30.6 5c-.4-1.1-.6-1.8.3-2.3.4-.2.5-.2.5-.3 0-.1.1-.3-.5-.3-.9 0-1.5.1-2.4.1-1 0-1.6-.1-2.5-.1-.3 0-.4.1-.4.4 0 .3.7.1 1.3.8.4.4 1 1.7 1.2 2.2l6.1 17.7c.1.3.1.8.5.8.3 0 .3-.6.4-.8l3.2-8.9 3.2 8.4c.3.3.5 1.3.8 1.3.3 0 .4-.4.5-.9l6.1-17.4c.6-1.4 1.1-2.9 2.1-3.1zm67.6 7c-3.4 0-6 3.4-6 7.4 0 2 .5 3.6 1.5 4.8-.3.2-.9.7-2.2.7-1.1 0-1.7-.7-1.8-2.1v-8.6h3.5c.2 0 .7-1.5.7-1.6 0-.2.1-.3.1-.5 0-.3-.2-.3-.4 0-.2.2-.3.6-1 .6h-2.9c0-2.5 0-3.6-.4-3.6s-.3.1-.7 1.2c-.4 1.5-1.8 2.3-2.7 2.8-.4.1-.8.1-1.3 0-.8-.2-1.7-1.1-3.9-1.1-2.5 0-4.6 2-4.6 4.7 0 1.5.6 2.8 1.8 3.6-.2.1-1.6 1.3-1.4 2.6 0 0 0 1.4 1.1 1.9-.3.1-.7.4-1 .7-.7-.3-1.8-.1-1.8-2v-5.3c0-2.4-.8-6-4.4-6-2.6 0-3.9 2.5-3.9 2.1v-1.8c0-.3-.2-.5-.3-.5-.6 0-.7 1-3 1.6-.1 0-.4.1-.4.3 0 .7 1.8-.7 1.8 1.7v7.9c0 1.7-1.3 1.7-1.6 1.7h-.3c-.6-.1-1.6-.3-1.6-1.4V10.1c0-.3-.2-.5-.3-.5-.6 0-1 1.1-2.7 1.7-.1 0-.4.1-.4.2 0 .7 1.5-.6 1.5 1.8v7.5c.1 1.8-.9 2.1-1.5 2.1-.7-.1-1.3-.4-1.3-1.5v-5.3c0-2.7-1-6.3-4.5-6.3-1.5 0-2.8.8-3.9 2V2.6c0-.3-.2-.5-.3-.5-.4 0-1.1 1.2-3.1 1.7-.1 0-.6.1-.6.3 0 .7 2-.3 2.1 1.8v15.6c0 1.6-1.3 1.3-1.6 1.8 0 .2.1.3.3.3.4 0 1.6-.1 2.4-.1.8 0 2.2.1 2.7.1.3 0 .5-.1.5-.4-.3-.5-2.4.3-2.4-2.5V14c0-1.6 1.9-2.9 3.1-2.9.9 0 3.2.7 3.2 4.7v5.8c0 1.1-1.2 1.3-1.3 1.6 0 .3.2.3.4.3.3 0 1.1-.1 2.2-.1.6 0 1.1 0 1.6.1.2 0 .6.1 1 .1.3 0 1-.1 1.9-.1.8 0 1.5.1 2.1.1h1.2c.3 0 .9-.1 2.3-.1 1.6 0 2.1.1 2.5.1.4 0 .9-.2.6-.4-.4-.4-2.4.1-2.4-2.1v-7.3c0-.5.9-2.5 3.2-2.5 2.2 0 3.1 2.4 3.1 4v6c0 2.1-.8 1.6-1.1 2.1-.2.3.1.4.5.4.3 0 .9-.1 1.9-.1 1 0 1.6.1 2 .1-.3.4-.5.9-.5 1.4-.1 2.6 3 3.5 5.7 3.5 5.3-.1 6.8-3.7 5.7-5.7-1.1-2-3.5-1.9-5.9-1.9-4.3 0-3.5-2.7-1.8-2.6.4 0 .2.1 1.6.1 2.5 0 4.9-1.7 4.8-4.5 0-.2.1-1.1-.6-2.2h2.5v7.9c0 3.6 1.7 4.2 3 4.2 1.8 0 3.1-1.2 3.3-1.7 1.1 1.1 2.5 1.7 4.3 1.7 3.3 0 5.8-3 5.8-7 .1-6.2-3.7-7.4-5.7-7.4zm-19.4 13c.2 0 .3.1 2.7.2 2.5.1 3.4.8 3.6 1.5.3 1.2-.5 3.6-4.2 3.4-2.3-.1-3-1.2-3.1-1.5-.8-1.3-.1-3.5 1-3.6zm2.1-4.7c-2.1 0-2.9-2.1-2.9-4 0-2 .6-3.7 2.8-3.7 2.2 0 3 2.2 3 4.2.1 1.9-.8 3.5-2.9 3.5zm17.6 4.9c-3.1 0-4.4-3.9-4.4-7 0-2.7 1.1-5.3 3.7-5.3 3.2 0 4.3 3.4 4.3 6.7 0 4-1.4 5.6-3.6 5.6z"/><path d="M135.9 21v-5.2c0-2.4-.8-6-4.4-6-2.6 0-3.9 2.5-3.9 2.1v-1.8c0-.3-.2-.5-.3-.5-.6 0-1.1 1-3.2 1.7-.1 0-.5 0-.5.3 0 .7 2.1-.9 2.1 1.7v7.9c0 2.1-1.4 1.6-1.7 2.1-.2.3.3.3.6.3s.9-.1 2.3-.1c1.6 0 2.1.1 2.5.1.4 0 .9-.2.6-.4-.4-.4-2.4.1-2.4-2.1v-7.3c0-.5.9-2.5 3.2-2.5 2.2 0 3.1 2.4 3.1 4v6c0 2.3-.8 1.6-1.1 2.1-.2.3.1.4.5.4.3 0 .9-.1 1.9-.1 1.3 0 1.9.1 2.2.1.3 0 .8-.2.5-.4-.7-.8-2 0-2-2.4zM80.5 8.6c.3 0 1.1-1.2 1.1-1.6s-.8-1.6-1.1-1.6c-.3 0-1.1 1.3-1.1 1.6s.7 1.6 1.1 1.6zm-17.9 7.2c-.5-.3-1.3-.7-1.7-.9-1.7-.9-2.3-1.5-2.4-2.4-.1-1.5 1.2-2.3 2.3-2.2 2.6 0 3 2.9 3.2 2.9.4 0 .3-.4.3-1.2 0-.2 0-1.3-.1-1.6-.3-.5-2.2-.8-2.6-.8h-.9c-1.9 0-3.6 1.2-3.6 3.7.1 2.3 2.7 3.6 4.2 4.4 1.1.6 2.3 1.2 2.3 2.6 0 1.7-1.3 2.8-2.7 2.7-3.3-.1-2.8-4.1-3.4-4.1-.4 0-.3 1-.3 1.6v1.4c-.1.4-.2.7-.6.7-1.3.1-1-2-1-3V13c-.1-2-1.6-3.4-3.9-3.4-3.2 0-5.5 3.9-4.4 5.2.3.3 1.3-.8 1.4-.9l.1-.1c0-1.3 1-3 2.4-3.2 1.7-.2 2.5 1.1 2.5 2.7v2.2c-6.3 1.2-7.2 3.3-7.2 5 0 2.3 1.6 3.3 3.3 3.3 1.5 0 3-.7 4.1-1.9.3 1.1 1 1.7 2.1 1.7.4 0 .4.1 1.5-.4.4-.1.4-.1.8 0 .6.2 1.4.6 2.7.6 2.1 0 4-1.9 4-4.3 0-1.5-.4-2.5-2.4-3.7zm-8.7 4.4c0 1.7-1.7 2.6-2.7 2.6-1.4 0-2.4-.9-2.4-2.8 0-2.8 3.4-3.3 5.1-3.8v4zm227.2.2c-.3 0-1.1 1.3-1.1 1.7 0 .3.8 1.6 1.1 1.6.3 0 1.1-1.3 1.1-1.6 0-.4-.8-1.7-1.1-1.7zm34.8 1.2V10.4c0-.6-.4-.8-.5-.8-.4 0-.6.1-.9.2-.3.1-.6.2-1.3.2-.1 0-.8-.1-.8.3s1.6.2 1.6 1.3v8.1c-.1 1.4-1.3 3-2.7 3-.3 0-2.5-.2-2.4-3.8v-8.4c0-.6-.4-.8-.5-.8-.4 0-.6.1-.9.2-.3.1-.6.2-1.4.2-.4 0-.8-.1-.8.3.1.3 1.6 0 1.6 1.3v7.8c0 2.8 1.7 4.5 3.7 4.5 1.3 0 2.6-.3 3.4-1.9h.1v1.4c0 .1 0 .5.2.5.4 0 .6-.3.9-.4.3-.1.4-.3 1.3-.4.4 0 .8-.2.8-.5-.1-.9-1.4-.3-1.4-1.1z"/><path d="M300.1 9.6c-3.4 0-6 3.4-6 7.4 0 1.8.4 3.3 1.2 4.4-.8.6-2.3 1.1-5.1 1.1-2.2 0-2-.8-2-2.6v-15c0-2.8 2.1-2 2.1-2.5 0-.3-.3-.3-.6-.3-.4 0-1.1.2-2.6.2-1.3 0-2.4-.1-3-.1-.3 0-.7.1-.5.4.3.6 2.2.1 2.2 1.7v15.6c0 1.5.2 2.4-.5 2.8-.8.5-1.8.5-1.7.9.1.2.5.2.7.2 1 0 2.5-.1 3.6-.2 2-.1 4 .1 6 .1 1.2 0 1.4-.2 2.3-1.4v-.1c1 1 2.4 1.5 4 1.5 3.3 0 5.8-3 5.8-7-.1-5.9-3.9-7.1-5.9-7.1zm.2 13.2c-3.1 0-4.4-3.9-4.4-7 0-2.7 1.1-5.3 3.7-5.3 3.2 0 4.3 3.4 4.3 6.7.1 4-1.3 5.6-3.6 5.6zm-33-10.8c-.8-.4-1.9-1.1-2.5-1.4-2.4-1.4-3.4-2.3-3.5-3.6-.1-2.3 2.1-3.6 3.7-3.5 2 0 3.7 1.2 4.4 3.9.1.3.3.9.6.9.2 0 .3-.2.2-.5l-.3-4.2c0-.3-.1-.4-.3-.4-.2 0-.4.3-.6.3-.3 0-1.1-1.2-3.9-1.1h-.4c-2.7 0-5.3 1.8-5.2 5.6.1 3.5 4 5.5 6.1 6.8 1.6.9 3.2 2.4 3.1 4.1-.1 2.5-1.7 4.2-3.7 4.1-4.7-.1-4.1-6.3-4.9-6.3-.6 0-.5 1.6-.5 2.4 0 2-.1 3.6.1 3.9.1.1.3 0 .8 0 .9 0 2.1 1.1 4.8 1.1 3.1 0 5.6-2.8 5.6-6.5-.1-2.2-.7-3.7-3.6-5.6zm53.3-3.4c.3 0 1.1-1.2 1.1-1.6s-.8-1.6-1.1-1.6c-.3 0-1.1 1.3-1.1 1.6s.8 1.6 1.1 1.6zm2.8 14.3c-.5 0-1.7-.2-1.7-1.4V10.1c0-.3-.2-.5-.3-.5-.6 0-1 1.1-2.7 1.7-.1 0-.4.1-.4.2 0 .7 1.5-.6 1.5 1.8v7.5c.1 1.9-1 2.1-1.6 2.1-.9 0-.7.1-.7.4 0 .3.5.3 1.4.3.3 0 1-.1 1.9-.1 1.1 0 1.9.1 2.5.1.3 0 .8-.8.1-.7zm6.1-7.1c-.5-.3-1.3-.7-1.7-.9-1.7-.9-2.3-1.5-2.4-2.4-.1-1.5 1.2-2.3 2.3-2.2 2.6 0 3 2.9 3.2 2.9.4 0 .3-.4.3-1.2 0-.2 0-1.3-.1-1.6-.3-.5-2.2-.8-2.6-.8h-.9c-1.9 0-3.6 1.2-3.6 3.7.1 2.3 2.7 3.6 4.2 4.4 1.1.6 2.3 1.2 2.3 2.6 0 1.7-1.3 2.8-2.7 2.7-3.3-.1-2.8-4.1-3.4-4.1-.4 0-.3 1-.3 1.6 0 1.3-.1 2.3.1 2.5 0 .1.2 0 .5 0 .6 0 1.4.7 3.3.7 2.1 0 4-1.9 4-4.3 0-1.4-.4-2.4-2.5-3.6zm-50.3 5.8c-.3.1-.9.8-2.3.8-1.1 0-1.7-.7-1.8-2.1v-9.1h3.5c.2 0 .7-1.5.7-1.6 0-.2.1-.3.1-.5 0-.3-.2-.3-.4 0-.2.2-.3.6-1 .6h-2.9c0-2.5 0-3.1-.4-3.1s-.3.1-.7 1.2c-.6 1.9-2.6 2.7-3.2 3.1-.2.1-.2.1-.2.2 0 .2.8.1 2.4.2v8.3c0 3.6 1.7 4.2 3 4.2 1.9 0 3.3-1.4 3.4-1.9 0-.3 0-.3-.2-.3zm-84-1.1c-.6 0-1.5 1.7-3.8 1.7-1.6 0-4.3-1.6-4.3-6.9h7.1c.6 0 .9 0 .9-.5 0-1.3-1.4-5.1-4.7-5.1-3.3 0-5.3 3.4-5.3 7.6 0 2.1 1.4 6.6 5.4 6.6 2.4 0 4.7-2.3 4.7-3.1.1-.2.1-.3 0-.3zM190 10.4c1.5 0 3 1.6 3 3.4 0 .5-.2.6-.5.6h-5.3c-.1-1.8 1.1-4 2.8-4zm-32.7-7.6c.1-.2-.3-.2-.4-.2-.4 0-1.4.1-1.9.1-.9 0-1.7-.1-2.6-.1-.1 0-.5.1-.5.2 0 .7 2.2-.1 2.2 2.7v10.9c0 3.2-1 6.6-5.5 6.6-3.2 0-4.9-2-4.9-6.4V4.7c0-2 1.5-1.5 1.6-2 0-.4-1.4-.2-1.5-.2-.7 0-1.2.1-2 .1-.6 0-1.4-.1-2-.1-.1 0-.6 0-.6.2-.2.6 2 .3 2 1.9v11.3c0 4.2 1.2 8.3 7.4 8.2 7.4-.1 7.2-6.8 7.2-8.1V5.4c0-2.5 1.2-2.2 1.5-2.6zm29.1 7.5c.2-.2.2-.5-.6-.5-.5 0-.8.1-1.3.1h-1.3c-.7 0-.9.1-.9.3.1.6 1.6 0 1.4 1.9-.2 1.5-.7 2.9-1.2 4.2l-1.8 4.8-2.6-7.9c-.3-1-.5-1.5-.5-1.6 0-1 1.2-.8 1.5-1.2.2-.3-.2-.4-.6-.4-.3 0-.7.1-1.7.1H175c-.9-.2-.8.3-.5.5.3.2.5 0 .9 1.4l4 11.4c.1.2.2.8.5.8.4 0 .4-.4.9-1.8 0 0 3.9-10.8 4.1-11.2.9-1 1.3-.7 1.5-.9zm14.9-.5c-1.1 0-1.9 1.3-2.4 2.2h-.1v-2c0-.3-.2-.5-.3-.5-.4 0-.7.8-3 1.4-.1 0-.5.1-.5.3 0 .7 1.9-.2 1.9 2v8.3c0 1.3-1.3 1.2-1.3 1.8 0 .2.1.3.3.3.2 0 .7-.1 2.4-.1 1.5 0 2.1.1 2.5.1.3 0 .4-.1.4-.3 0-1-2.3.5-2.3-2.4v-7.1c0-.4.6-1.9 1.7-1.9.9 0 1.1.7 1.5.7.3 0 .9-.9.9-1.4 0-.6-1.1-1.4-1.7-1.4zm33.6.1h-1.6c-.8 0-1.2-.1-1.5-.1-.5 0-1 0-.9.3.1.4 1.8.2 1.8 2.1 0 .2 0 .5-.3 1.8l-2.2 6.8-3-8.4s-.1-.3-.1-.8c0-1.4 1.6-1.2 1.7-1.5.1-.2-.2-.4-.6-.4h-6.6c0-2.5 0-3.1-.4-3.1s-.3.1-.7 1.2c-.6 1.9-2.6 2.7-3.2 3.1-.3.1-.3.1-.3.2 0 .2.8.1 2.4.2v8.3c0 3.6 1.7 4.2 3 4.2 1.9 0 3.3-1.4 3.4-1.9 0-.3 0-.3-.2-.3-.3.1-.9.8-2.3.8-1.1 0-1.7-.7-1.8-2.1v-9.1h3.3c0 .1.1.1.1.2l3.1 8.7c.3.7.4.9.7 2.2.2.8.1 1.6.1 1.6-.3 1.3-1.1 2.1-2.3 4.5-.1.2 1.8 0 1.9-.1.2 0 .1-.1.3-.4l1.4-4.1 3.8-11.7c.6-2 1.4-1.7 1.6-2-.1-.1-.2-.2-.6-.2zM230 23.7l-.1.2zM214.8 8.6c.3 0 1.1-1.2 1.1-1.6s-.8-1.6-1.1-1.6c-.3 0-1.1 1.3-1.1 1.6s.7 1.6 1.1 1.6zm2.7 14.3c-.5 0-1.7-.2-1.7-1.4V10.1c0-.3-.2-.5-.3-.5-.6 0-1 1.1-2.7 1.7-.1 0-.4.1-.4.2 0 .7 1.5-.6 1.5 1.8v7.5c.1 1.9-1 2.1-1.6 2.1-.9 0-.7.1-.7.4 0 .3.5.3 1.4.3.3 0 1-.1 1.9-.1 1.1 0 1.9.1 2.5.1.4 0 .8-.8.1-.7zm-45-14.3c.3 0 1.1-1.2 1.1-1.6s-.8-1.6-1.1-1.6c-.3 0-1.1 1.3-1.1 1.6s.8 1.6 1.1 1.6z"/><path d="M175.2 22.9c-.5 0-1.7-.2-1.7-1.4V10.1c0-.3-.2-.5-.3-.5-.6 0-1 1.1-2.7 1.7-.1 0-.4.1-.4.2 0 .7 1.5-.6 1.5 1.8v7.5c.1 1.9-1 2.1-1.6 2.1h-.2c-.6-.1-1.1-.3-1.1-1.9v-5.2c0-2.4-.8-6-4.4-6-2.6 0-3.9 2.5-3.9 2.1v-1.8c0-.3-.2-.5-.3-.5-.6 0-1.1 1-3.2 1.7-.1 0-.5 0-.5.3 0 .7 2.1-.9 2.1 1.7v7.9c0 2.1-1.4 1.6-1.7 2.1-.2.3.3.3.6.3s.9-.1 2.3-.1c1.6 0 2.1.1 2.5.1.4 0 .9-.2.6-.4-.4-.4-2.4.1-2.4-2.1v-7.3c0-.5.9-2.5 3.2-2.5 2.2 0 3.1 2.4 3.1 4v6c0 2.3-.8 1.6-1.2 2.1-.2.3.1.4.5.4.3 0 .9-.1 1.9-.1 1.3 0 1.9.1 2.2.1h.5c.3 0 1-.1 1.9-.1 1.1 0 1.9.1 2.5.1.5-.2.9-1 .2-.9zm33.8-7.1c-.5-.3-1.3-.7-1.7-.9-1.7-.9-2.3-1.5-2.4-2.4-.1-1.5 1.2-2.3 2.3-2.2 2.6 0 3 2.9 3.2 2.9.4 0 .3-.4.3-1.2 0-.2 0-1.3-.1-1.6-.3-.5-2.2-.8-2.6-.8h-.9c-1.9 0-3.6 1.2-3.6 3.7.1 2.3 2.7 3.6 4.2 4.4 1.1.6 2.3 1.2 2.3 2.6 0 1.7-1.3 2.8-2.7 2.7-3.3-.1-2.8-4.1-3.4-4.1-.4 0-.3 1-.3 1.6 0 1.3-.1 2.4.1 2.5 0 .1.2 0 .5 0 .6 0 1.4.7 3.3.7 2.1 0 4-1.9 4-4.3-.1-1.4-.5-2.4-2.5-3.6z"/><path fill="#007360" d="M11.3 2C11.2 2 6.8 2 .5.7v18.5c0 .8.3 1.5.8 2.1.3.4.8.7 1.4 1.1l.6.3c.2.1.3.1.5.2.1.1.6.2.7.3l6.8 2.6 6.8-2.6c.1-.1.6-.2.7-.3.2-.1.3-.1.5-.2l.6-.3c.6-.4 1.1-.7 1.4-1.1.5-.6.7-1.2.8-2.1V.7C15.9 2 11.4 2 11.3 2z"/><path fill="#E1C4AC" d="M11.3 3c-.1 0-4.2 0-9.9-1.1v4.6c5.7 1.2 9.8 1.1 9.9 1.1.1 0 4.2 0 9.9-1.1V1.9c-5.7 1.2-9.8 1.2-9.9 1.1z"/><path fill="#A51417" d="M11.3 7.7c-.1 0-4.2 0-9.9-1.1v10.2c5.7 1.2 9.8 1.1 9.9 1.1.1 0 4.2 0 9.9-1.1V6.5c-5.7 1.2-9.8 1.2-9.9 1.2z"/><path fill="#E1C4AC" d="M1.4 18.8c0 .8.3 1.4.7 1.9.3.3.7.7 1.3 1l.6.3c.1.1.3.1.4.2.1.1.5.2.7.3l6.2 2.4 6.2-2.4c.1 0 .5-.2.7-.3.2-.1.3-.1.4-.2.2-.1.4-.2.5-.3.6-.3 1-.7 1.3-1 .5-.5.7-1.1.7-1.9v-2c-5.7 1.2-9.8 1.1-9.9 1.1-.1 0-4.2 0-9.9-1.1v1.6c.1.2.1.4.1.4z"/><path fill-rule="evenodd" clip-rule="evenodd" fill="#007360" d="m4.9 3 .5 1.4h1.4l-1.1.9.4 1.3-1.2-.8-1.2.8.5-1.3L3 4.4h1.5zm12.8 0 .5 1.4h1.4l-1.1.9.4 1.3-1.2-.8-1.2.8.4-1.3-1.1-.9h1.4zm-6.4.5.5 1.4h1.4l-1.1.9.4 1.4-1.2-.9-1.2.9.5-1.4-1.2-.9h1.4z"/><path d="m11.3 18.3-.5.5v1.4l.3.7v1.2h.5v-1.2l.2-.7v-1.4zm.3 4.9v-.7h-.5v.7l-.3.5.5.6.5-.6zm.3-.7v.6l.4.3.5-.4v-.5zm.6-2.3-.6.7v1.2h.5v-.7l.5-.5.6.4.4-.4v-.7zm-1.8 2.3v.6l-.3.3-.6-.4v-.5zm-.6-2.3.6.7v1.2h-.5v-.7l-.5-.5-.6.4-.4-.4v-.7z" fill="#007360"/><path fill="#E1C4AC" d="M16 9.3v5.8h-3.9l-.3.3-.5.4-.5-.4-.3-.3H6.6V9.3l-.8.6V16h4.6l.4.3.5.5.5-.5.4-.3h4.6V9.9z"/><path fill="#E1C4AC" d="m11.9 8.8-.1.1-.5.4-.5-.4-.1-.1H7.4v5.5h3.3l.2.2.4.4.4-.4.2-.2h3.3V8.8zm5.8 1.7v3.7c1.1-.2 2.2-.4 3.5-.6V9.9c-1.3.3-2.4.5-3.5.6zm-12.8 0c-1.1-.2-2.2-.4-3.5-.6v3.7c1.2.3 2.4.5 3.5.6v-3.7z"/><path d="m17.7 17.8-.4.3v1l.2.5v.9h.4v-.9l.2-.5v-1zm.2 3.4v-.5h-.4v.5l-.2.4.4.4.4-.4zm.2-.5v.4l.3.3.4-.3v-.4zm.5-1.6-.5.5v.9h.4v-.6l.3-.3.5.3.2-.3v-.5zm-1.3 1.6v.4l-.3.3-.4-.3v-.4zm-.5-1.6.5.5v.9h-.4v-.6l-.3-.3-.5.3-.2-.3v-.5zM4.9 17.8l-.3.3v1l.1.5v.9h.4v-.9l.2-.5v-1zm.2 3.4v-.5h-.4v.5l-.1.4.3.4.4-.4zm.3-.5v.4l.2.3.4-.3v-.4zm.4-1.6-.4.5v.9h.3v-.6l.3-.3.5.3.2-.3v-.5zm-1.3 1.6v.4l-.2.3-.5-.3v-.4zm-.4-1.6.4.5v.9h-.4v-.6l-.3-.3-.4.3-.3-.3v-.5z" fill="#007360"/><path fill-rule="evenodd" clip-rule="evenodd" d="M74.3 42.9s1.7-1 1.6-2.7c-.1-1.7-1-2.3-1.7-2.3s-1.5.5-1.6 2.1c0 1.6 1.7 2.9 1.7 2.9zm2.5 4.9c-.6-.9-1.3-1.7-2.1-2.5l-1.1-1.1s-.7.5-1 .9c-.4.4-.9 1.4-.8 2.8.2 2 1.6 2.5 2.8 2.3C75.7 50 77 48 77 48l-.2-.2zm4 3.4H79l-.1-.2-.4-.6c-.2-.3-.6-.9-1.2-1.9-1.3 1.9-2.2 2.8-3.7 2.8-2.4 0-3.2-2-3.2-3.6 0-1.1.4-2 1-2.7.4-.5.9-.9 1.6-1.3-.9-.8-1.5-1.6-1.5-2.9 0-2.2 1.4-3.6 2.9-3.6 1.4 0 2.6 1.2 2.6 3.1 0 .9-.3 1.3-.8 2-.3.4-.8.9-1.3 1.3-.1.1 1.2 1.4 1.3 1.5l1.5 1.7s1.6-3.2 1.3-3.7c-.2-.4-1.4-.5-1.4-.5V42h4.1v.6c-.3 0-1 .1-1.5.6-.2.3-2.1 3.9-2.1 3.9s1.4 1.9 1.5 2.2c0 0 .2.4.3.5l.1.1c.4.6.4.7.8 1.3zm-35.9-9c0-.6 0-.7.9-.7 1 0 1.9.7 1.9 2.2 0 .7-.2 1.5-.7 1.9-.4.3-.8.4-1.2.4H45v-3.8h-.1zm0 4.4h.6c.5 0 .6.1.9.6.3.6.8 1.7 1.3 2.4.5.8 1.2 1.4 2.7 1.4h.3l.1-.4c-.4-.2-.7-.4-1-.7-.3-.4-.6-.9-1.1-1.6-.4-.7-1-1.8-1.2-2.2 1-.4 1.8-1.2 1.8-2.6 0-1-.4-1.7-.9-2.1-.5-.4-1.3-.5-2.1-.5h-4v.5c1.1.1 1.3.2 1.3 1.9v5.3c0 1.6-.1 1.8-1.3 1.9v.5h4v-.5c-1.2-.1-1.3-.2-1.3-1.9v-2h-.1z"/><path d="M53.9 48.5c0 1.6-.1 1.8-1.4 1.9v.5h4.3v-.5c-1.3-.1-1.4-.2-1.4-1.9v-7h.8c.8 0 1.2.1 1.5.4.2.2.3.7.5 1.6h.5c-.1-1-.1-2.4-.2-3h-.2c-.2.3-.3.4-.6.4H52c-.3 0-.5 0-.7-.4h-.2c0 .8-.1 1.9-.2 3.1h.4c.2-.9.3-1.3.5-1.5.2-.3.6-.5 1.7-.5h.6v6.9h-.2zm5.3-.8c.1 1 .3 2.2.4 2.6.3.2 1.2.8 2.3.8 1.8 0 3.1-1.3 3.1-3.2 0-1.9-1.3-2.6-2.6-3.2-.8-.4-1.7-.8-1.7-1.9 0-.9.5-1.6 1.4-1.6 1.1 0 1.7 1 2 2.3h.5c-.1-1.1-.2-1.8-.3-2.5-.3-.1-1-.4-1.8-.4-1.8 0-3 1.2-3 3s1.5 2.4 2.4 2.9c.8.4 1.8.9 1.8 2.2 0 1.1-.6 1.8-1.7 1.8-1.2 0-2.2-1.6-2.4-2.7l-.4-.1z"/><path fill-rule="evenodd" clip-rule="evenodd" d="m35.8 39.6 1.7 4.8h-3.2l1.5-4.8zm-.9.9-2.6 7.6c-.6 2-.8 2.1-2 2.3v.5h3.9v-.5h-.6c-.8-.1-1-.4-.6-1.7.3-.9.9-2.7 1-3.3h3.7c.5 1.6 1 3.4 1.2 3.9.2.7.1.9-.6 1l-.6.1v.5h4.5v-.5c-1.1-.1-1.4-.3-2-2.2-.7-2.3-3.7-11.2-3.7-11.2l-.4.2-1.2 3.3z"/><path d="M85.6 47.3c.2 1.1.4 2.6.5 3.2.2.1.5.3.9.4.4.2 1 .3 1.6.3 2.2 0 3.8-1.9 3.8-4.3 0-2.6-1.8-3.6-3-4.2-1.3-.7-2.2-1.2-2.2-2.7 0-1.2.6-2.3 1.8-2.3 1.6 0 2.1 1.4 2.4 2.7l.4-.1c-.1-1.3-.2-2.1-.3-2.8-.2 0-.4-.1-.7-.2-.2-.2-.8-.3-1.2-.3-2.3 0-3.5 1.8-3.5 3.9 0 2.5 2.3 3.6 2.9 3.9 1.1.7 2.2 1.3 2.2 3.1 0 1.6-1 2.7-2.3 2.7-1.8 0-2.5-2.3-2.8-3.3h-.5zm15.7-3.7c-.1-1-.1-1.8-.2-2.7-.5-.1-1.4-.4-2.6-.4-2.8 0-5 2.2-5 5.4 0 2.6 1.5 5.2 4.8 5.2 1 0 2.2-.3 2.6-.4.2-.6.5-2 .7-2.8l-.5-.1c-.7 1.8-1.4 2.6-2.7 2.6-2 0-3.3-1.9-3.3-4.8 0-2.5 1.1-4.4 3.1-4.4 1.3 0 2.2.6 2.6 2.5l.5-.1zm4-.4c0-1.7.1-1.8 1.3-1.9v-.5h-4v.5c1.2.1 1.3.2 1.3 1.9v5.3c0 1.6-.1 1.8-1.3 1.9v.5h4v-.5c-1.2-.1-1.3-.2-1.3-1.9v-5.3zm3.8 5.2c0 1.7-.1 1.8-1.4 1.9v.5h7c.1-.4.4-2 .5-2.6l-.5-.1c-.2.8-.4 1.3-.7 1.5-.3.4-.9.5-1.7.5-.8 0-1.2 0-1.5-.2-.3-.2-.3-.7-.3-1.5V46h1.5c1.2 0 1.2.1 1.3 1.3h.5V44h-.5c-.1 1.1-.2 1.2-1.3 1.2h-1.5V42c0-.6 0-.6.5-.6h1c.9 0 1.3.2 1.5.4.2.2.3.7.5 1.4h.5c-.1-1-.1-2.1-.1-2.5h-6.5v.5c1.2.1 1.3.2 1.3 1.9v5.3h-.1zm15.1-3.4c0-1.6.1-2.4.1-2.9.1-.5.5-.8 1.2-.8v-.5H122v.5c.9.1 1.3.3 1.4.8.1.5.1 1.3.1 2.9v3.1l-5.5-7.3h-2.3v.5c1.3.1 1.5.4 1.5 2.2v3c0 1.6-.1 2.4-.1 2.9-.1.5-.5.8-1.2.9v.5h3.5v-.5c-.9-.1-1.3-.3-1.4-.9-.1-.5-.1-1.3-.1-2.9v-3.3l5.6 7.6h.6V45h.1zm9.4-1.4c-.1-1-.1-1.8-.2-2.7-.5-.1-1.4-.4-2.6-.4-2.8 0-5 2.2-5 5.4 0 2.6 1.5 5.2 4.8 5.2 1 0 2.2-.3 2.6-.4.2-.6.5-2 .7-2.8l-.5-.1c-.7 1.8-1.4 2.6-2.7 2.6-2 0-3.3-1.9-3.3-4.8 0-2.5 1.1-4.4 3.1-4.4 1.3 0 2.2.6 2.6 2.5l.5-.1zm2.3 4.8c0 1.7-.1 1.8-1.4 1.9v.5h7c.1-.4.4-2 .5-2.6l-.5-.1c-.2.8-.4 1.3-.7 1.5-.3.4-.9.5-1.7.5-.8 0-1.2 0-1.5-.2-.3-.2-.3-.7-.3-1.5V46h1.5c1.2 0 1.2.1 1.3 1.3h.5V44h-.5c-.1 1.1-.2 1.2-1.3 1.2h-1.5V42c0-.6 0-.6.5-.6h1c.9 0 1.3.2 1.5.4.2.2.3.7.5 1.4h.5c-.1-1-.1-2.1-.1-2.5h-6.5v.5c1.2.1 1.3.2 1.3 1.9v5.3h-.1zm6.9-.7c.1 1 .3 2.2.4 2.6.3.2 1.2.8 2.3.8 1.8 0 3.1-1.3 3.1-3.2 0-1.9-1.3-2.6-2.6-3.2-.8-.4-1.7-.8-1.7-1.9 0-.9.5-1.6 1.4-1.6 1.1 0 1.7 1 2 2.3h.5c-.1-1.1-.2-1.8-.3-2.5-.3-.1-1-.4-1.8-.4-1.8 0-3 1.2-3 3s1.5 2.4 2.4 2.9c.8.4 1.8.9 1.8 2.2 0 1.1-.6 1.8-1.7 1.8-1.2 0-2.2-1.6-2.4-2.7l-.4-.1z"/></svg>