<svg xmlns="http://www.w3.org/2000/svg" xmlns:xlink="http://www.w3.org/1999/xlink" version="1.1" id="Layer_1" x="0px" y="0px" viewBox="0 0 612 424" enable-background="new 0 0 612 424" xml:space="preserve">
<g>
	<rect x="0.3" y="337" width="611.6" height="2.2"/>
</g>
<g>
	<path d="M59.4,118c1.6,1.8,4.6,7.7,5.3,9.8l27.7,79.5c0.5,1.2,0.6,3.5,2.3,3.5c1.3,0,1.5-2.7,2-3.7l14.5-39.9l14.2,37.9   c0.6,1.5,1.4,5.7,2.9,5.7c1.2,0,1.7-2,2.3-3.9l27.4-78.4c2.3-6.3,5-13,9.3-13.7c1.7-0.2,2.5-0.9,2.5-0.9c0-1.1-0.2-1.4-1.8-1.4   c-3,0-4.9,0.5-7.9,0.5c-3.3,0-5.8-0.4-8.6-0.4c-1.6,0-1.5,0.5-1.5,1.4c0,1,3,0.4,4.7,4.1c1,2,0.6,6.3-0.4,8.8l-23.3,63.9l-9.9-28.3   l-3.9-10.3c0,0-0.6,0.3,2.2-8.3l5.5-16.4c2.7-8.1,5.3-12.3,8.7-12.3c4.3-0.1,4.3-2.6,1-2.6s-5.2,0.3-8.2,0.3c-3,0-4.6-0.3-7.9-0.3   c-1.2,0-2.5,0.4-2.4,1.4c0.1,1,1.9,0.6,3.3,1.4c2.2,1.1,3.6,5.8,2.1,10.7l-6.4,20.5l-7.3-19.1c-1.5-3.7-3.4-11.7,0.1-12.4   c3.4-0.7,2.9-2.5,0.9-2.5c-4,0-6.1,0.5-10,0.5c-4.2,0-7.4-0.5-11.4-0.5c-0.9,0-2.4,0.1-1.9,1.8c0.2,1,2.3,0.6,3.5,1.4   c4.8,3.1,5.8,7.2,7.5,11.7l10.7,30.1c1.9,5.4,2.1,3.4,0.5,8.1l-9.3,25.6l-22.9-65.6c-1.8-4.9-2.8-8.3,1.2-10.2   c1.7-0.9,2.2-1,2.4-1.4c0.2-0.3,0.4-1.5-2.1-1.4c-4.1,0.1-6.7,0.5-10.8,0.5c-4.4,0-7.4-0.5-11.4-0.5c-1.3,0-1.6,0.6-1.6,1.6   C53.3,115.7,56.6,114.7,59.4,118"/>
	<path d="M503.4,162.6v35.5c0,9.3-6.3,7.1-7.7,9.5c-0.7,1.2,1.2,1.5,2.7,1.5c1.4,0,3.9-0.6,10.2-0.6c7,0,9.4,0.6,11.4,0.6   c1.8,0,3.9-0.8,2.6-2c-1.9-1.9-10.6,0.3-10.6-9.6v-32.9c-0.1-2.3,4.1-11.2,14.2-11.2c9.7,0,14.1,10.7,14.1,17.9v26.8   c-0.1,10.5-3.7,7.2-5.2,9.3c-0.8,1.2,0.6,1.7,2.2,1.7c1.6,0,4.1-0.6,8.7-0.6c5.9,0,8.5,0.5,10,0.5c1.2,0,3.4-0.9,2-2   c-3-2.4-9,1.3-9-9.6v-23.6c0-10.9-3.5-26.8-19.6-26.8c-11.7,0-17.7,11.1-17.5,9.4v-8.2c0-1.4-0.7-2.3-1.4-2.3   c-2.8,0-4.8,4.7-14.2,7.5c-0.6,0.1-2.3,0.2-2.4,1.2C494.1,157.7,503.5,150.8,503.4,162.6"/>
	<path d="M150.5,169.3c1.2,1.3,5.9-3.7,6.1-4c0.3-0.3,0.3-0.6,0.3-0.6c0-6,4.5-13.7,11-14.4c7.4-0.7,11.1,4.8,11.1,12.3v9.7   c-28.2,5.6-32.2,15-32.2,22.6c0,10.2,7.2,14.8,15,14.8c6.7,0,13.4-3.2,18.4-8.4c1.6,4.8,4.7,7.6,9.4,7.5c1.6,0,1.9,0.4,6.8-1.7   c1.7-0.4,1.6-0.4,3.6-0.1c2.6,0.9,6.1,2.7,12.4,2.7c9.4,0.1,17.9-8.6,17.9-19.4c0-6.7-1.9-10.9-11.1-16.6c-2.4-1.1-5.9-3.2-7.6-4.1   c-7.6-4.1-10.5-6.8-10.7-10.7c-0.3-6.7,5.3-10.2,10.3-9.7c11.8-0.2,13.4,13,14.6,13c1.8,0,1.3-1.7,1.3-5.6c0-1,0.1-5.9-0.6-7.1   c-1.4-2.2-9.8-3.4-11.8-3.4c-0.5,0-2.4-0.1-2.8-0.1c-0.6,0-1.3,0.1-1.3,0.1c-8.4-0.1-16.2,5.2-16,16.4c0.2,10.3,12.3,16.1,18.8,20   c4.8,2.7,10.5,5.4,10.4,11.9c-0.1,7.5-5.9,12.5-12.1,12c-14.6-0.2-12.6-18.6-15.3-18.6c-1.8,0-1.4,4.6-1.4,7.1c0,2.4,0,4.6,0,6.4   c-0.3,1.7-1,3.2-2.5,3.3c-5.8,0.3-4.4-8.8-4.4-13.7v-29.9c-0.3-9.1-7.2-15.1-17.6-15.1C155.9,146.1,145.7,163.8,150.5,169.3    M180.1,194c0,7.7-7.8,11.7-12.1,11.7c-6.4,0-10.8-4.1-10.8-12.4c0-12.7,15.2-15,23-17V194z"/>
	<path d="M299.7,141.6c1.5,0,4.9-5.6,4.9-7.3s-3.4-7.4-4.9-7.4c-1.4,0-4.9,5.9-4.9,7.4S298.3,141.6,299.7,141.6"/>
	<path d="M311.6,209.1C311.7,209.1,311.7,209.1,311.6,209.1c1.5,0,2.9,0,3.4,0c1.4,0,3.9-0.6,10.2-0.6c7,0,9.4,0.6,11.4,0.6   c1.8,0,3.9-0.8,2.7-2c-1.9-1.9-10.6,0.3-10.6-9.6v-32.9c-0.1-2.3,4.1-11.2,14.2-11.2c9.8,0,14.1,10.7,14.1,17.9v26.8   c0,9.3-3.7,7.2-5.2,9.3c-0.8,1.2,0.6,1.7,2.2,1.7c1.6,0,4.1-0.6,8.7-0.6c4.3,0,7.1,0.3,8.9,0.5c-1.3,1.9-2.2,4.2-2.4,6.5   c-0.6,11.6,13.6,15.8,25.6,15.7c23.8-0.3,30.5-16.8,25.6-25.6c-5.1-9-16-8.7-26.4-8.6c-19.5,0.1-15.8-12-7.9-11.6   c1.8,0.1,1,0.6,7.3,0.6c11.3,0,22.1-7.7,21.8-20.3c0-1.1,0.2-4.8-2.5-9.9c5.3,0,3.2,0,11.2,0l0,35.4c0,16,7.6,18.7,13.3,18.7   c8.1,0,14-5.3,15.1-7.8c4.8,5.1,11.4,7.8,19.1,7.8c14.8,0,26-13.6,26-31.5c0-27-17-32.4-26.1-32.4c-15.2,0-26.8,15.2-26.8,33.1   c0,9.1,2.4,16.3,6.6,21.5c-1.4,1-4.3,3.2-10,3.2c-5,0-7.8-3-8.1-9.3v-38.8c0,0,14.9,0,15.7,0c1,0,3-6.7,3.1-7.1   c0.2-0.8,0.5-1.5,0.6-2.1c0.2-1.3-0.8-1.4-1.7,0c-0.7,0.7-1.5,2.6-4.6,2.6h-13c0-11.2,0.1-16.3-1.6-16.3c-1.7,0-1.4,0.5-2.9,5.4   c-2,6.7-8.3,10.3-12.2,12.5c-1.8,0.4-3.8,0.5-6,0.1c-3.4-0.7-7.4-4.9-17.8-4.9c-11.1,0-20.7,9-20.7,21.2c0,6.5,2.9,12.8,8,16.1   c-0.9,0.6-7.1,5.8-6.4,11.9c0,0-0.1,6.3,4.8,8.5c-1.5,0.6-3.1,1.6-4.5,2.9c-3.2-1.2-8-0.3-8-8.9v-23.6c0-10.9-3.5-26.8-19.6-26.8   c-11.7,0-17.7,11.1-17.5,9.4v-8.2c0-1.4-0.7-2.3-1.4-2.3c-2.8,0-3.4,4.6-13.5,7.2c-0.6,0.2-2,0.5-2,1.6c0,3,8.1-3.3,8.2,7.8v35.5   c0,7.6-6.1,7.7-7.1,7.8c-0.4,0-0.9,0-1.4,0c-2.6-0.2-7-1.4-7-6.2v-51.4c0-1.4-0.7-2.3-1.4-2.3c-2.8,0-4.5,5-12.2,7.6   c-0.6,0.1-1.7,0.3-1.7,1.1c0,3,6.9-2.8,6.6,7.9v33.8c0.3,8.3-4,9.4-6.7,9.5c-3.2-0.4-5.7-1.7-5.7-6.6v-23.9   c0-12.3-4.7-28.2-20.1-28.2c-6.9,0-12.8,3.8-17.3,8.9v-41.2c0-1.4-0.7-2.2-1.4-2.3c-1.8-0.1-5,5.5-13.7,7.6   c-0.6,0.1-2.9,0.3-2.9,1.2c0,3,9.1-1.4,9.3,7.9v70.2c0,7-6,6.1-7.1,8.3c-0.2,1,0.4,1.4,1.2,1.4c1.9,0,7.2-0.6,11-0.6   c3.7,0,9.8,0.6,12.3,0.6c1.4,0,2-0.3,2-2c-1.3-2.4-10.6,1.3-10.6-11v-30.2c0-7.3,8.7-12.9,14.1-12.9c4.2,0,14.6,3.3,14.6,21.1v26.2   c0,5.2-5.5,5.7-5.9,7.3c0,1.1,0.7,1.6,1.9,1.6c1.3,0,5.2-0.6,9.9-0.6c2.6,0,5,0.1,7,0.3c1.1,0.2,2.6,0.2,4.6,0.2   c1.3,0,4.6-0.5,8.5-0.5c3.8,0,6.9,0.3,9.2,0.5c0.5,0,0.9,0,1.4,0.1C311.3,209.1,311.5,209.1,311.6,209.1 M469.6,150.3   c14.3,0,19.5,15.3,19.5,30.2c0,18-6.4,25.2-16.5,25.2c-14.1,0-19.6-17.5-19.6-31.7C453,161.7,457.8,150.3,469.6,150.3z    M393.2,148.6c9.8,0,13.7,10.1,13.7,18.9c0,9-4.1,15.9-13.2,15.9c-9.7,0-12.9-9.3-12.9-18.2C380.8,156.1,383.5,148.6,393.2,148.6z    M384.3,204.6c1-0.1,1.2,0.4,12.3,0.8c11.4,0.3,15.5,3.6,16.2,6.5c1.2,5.2-2.5,16.4-18.8,15.3c-10.3-0.7-13.3-5.6-14.1-6.7   C376,215.1,379.2,204.9,384.3,204.6z"/>
	<path d="M318.3,251.5c0,1.1,2.5,5.1,3.5,5.1c1.1,0,3.5-3.9,3.5-5.1c0-1.2-2.4-5.2-3.5-5.2C320.7,246.3,318.3,250.4,318.3,251.5"/>
	<path d="M366.8,295.9v-16.6c0-7.6-2.5-18.8-13.8-18.8c-8.2,0-12.4,7.8-12.3,6.6v-5.8c0-1-0.5-1.6-1-1.6c-1.9,0-3.4,3.3-10,5.3   c-0.4,0.1-1.6,0.1-1.7,0.9c0,2.1,6.6-2.7,6.5,5.5v24.9c0,4.7-2.3,5-4,5.5c-0.1,0-0.2,0-0.3,0c-1.7-0.1-5.3-0.8-5.3-4.4v-36.1   c0-1-0.5-1.6-1-1.6c-1.9,0-3.2,3.5-8.6,5.3c-0.4,0.1-1.2,0.2-1.2,0.8c0,2.1,4.9-2,4.6,5.5v23.7c0.2,6.1-3.1,6.7-5,6.7   c-2.7,0-2.1,0.3-2.1,1.2c0.1,1,1.7,1.1,4.5,1.1c0.9,0,3.2-0.4,6-0.4c3.5,0,6.1,0.4,7.9,0.4c1,0,3.8-0.4,8.2-0.4   c4.9,0,6.6,0.4,8,0.4c1.3,0,2.7-0.6,1.9-1.4c-1.4-1.3-7.4,0.2-7.4-6.7v-23.1c-0.1-1.6,2.9-7.8,10-7.8c6.8,0,9.9,7.5,9.9,12.6v18.8   c-0.1,7.4-2.6,5-3.6,6.5c-0.6,0.8,0.4,1.2,1.5,1.2c1.1,0,2.9-0.4,6.1-0.4c4.1,0,6,0.4,7.1,0.4c0.8,0,2.4-0.7,1.4-1.4   C371,300.9,366.8,303.5,366.8,295.9"/>
	<path d="M449.7,294.1c-1,0-3.5,4.2-3.5,5.3c0,1.1,2.5,5.2,3.5,5.2c1.1,0,3.5-4,3.5-5.2C453.2,298.2,450.8,294.1,449.7,294.1"/>
	<path d="M559.7,297.7v-35.4c0-2-1.1-2.5-1.4-2.5c-1.3,0-2,0.3-2.9,0.5c-0.9,0.3-1.9,0.8-4.2,0.8c-0.4,0-2.6-0.4-2.5,0.8   c0.1,1.2,5.1,0.5,5.2,4v25.6c-0.4,4.5-4.1,9.4-8.7,9.4c-1,0-7.8-0.7-7.7-11.9v-26.7c0-2-1.1-2.5-1.4-2.5c-1.3,0-2,0.3-2.9,0.5   c-0.9,0.3-2,0.7-4.3,0.6c-1.2,0-2.6-0.2-2.4,0.9c0.2,1,5.2,0,5.2,4v24.5c0,9,5.3,14.1,11.6,14.1c4.2,0,8.1-0.9,10.6-5.9h0.2v4.3   c0,0.4,0.1,1.6,0.7,1.6c1.2,0,1.8-1,2.7-1.3c1-0.2,1.2-1.1,4.2-1.4c1.3-0.1,2.7-0.8,2.7-1.6C563.9,298.5,559.7,300.4,559.7,297.7"/>
	<path d="M509.8,259.7c-10.7,0-18.9,10.7-18.9,23.3c0,5.7,1.4,10.3,3.7,13.8c-2.6,1.9-7.3,3.6-16.2,3.6c-7,0-6.3-2.4-6.3-8.3v-47.2   c0-8.7,6.5-6.2,6.6-7.8c0.1-1.1-0.9-0.9-2-0.9c-1.2,0-3.5,0.5-8.2,0.5c-4.1,0-7.6-0.4-9.4-0.4c-1.1,0-2.1,0.3-1.7,1.1   c0.8,1.9,7,0.2,7,5.4v49.3c0,4.7,0.7,7.7-1.5,8.9c-2.6,1.6-5.7,1.7-5.5,2.7c0.2,0.6,1.5,0.7,2.2,0.7c3.3,0,7.9-0.4,11.2-0.5   c6.3-0.2,12.6,0.4,18.9,0.4c3.7,0,4.6-0.7,7.2-4.3c0.1-0.1,0.1-0.1,0.2-0.2c3.3,3.1,7.6,4.8,12.6,4.8c10.4,0,18.3-9.6,18.3-22.1   C528.2,263.5,516.3,259.7,509.8,259.7 M510.7,301.7c-9.9,0-13.8-12.3-13.8-22.3c0-8.7,3.4-16.7,11.7-16.7   c10.1,0,13.7,10.7,13.7,21.2C522.3,296.6,517.8,301.7,510.7,301.7z"/>
	<path d="M406.1,267.4c-2.4-1.2-6-3.4-7.8-4.4c-7.7-4.4-10.8-7.4-11-11.5c-0.4-7.2,6.7-11.5,11.7-10.9c6.4,0,11.7,3.9,13.9,12.2   c0.2,0.9,1,2.9,1.8,2.9c0.7,0,0.9-0.7,0.8-1.4l-1.1-13.1c-0.1-1.1-0.4-1.4-0.9-1.4c-0.7,0-1.2,1.1-1.8,1.1c-1,0-3.6-3.6-12.4-3.6   c-0.6,0-1.4,0.1-1.4,0.1c-8.6-0.1-16.6,5.6-16.4,17.6c0.2,11,12.6,17.3,19.2,21.5c4.9,2.9,10.1,7.7,9.9,12.9   c-0.3,8.1-5.3,13.3-11.7,12.9c-15-0.3-12.9-20-15.6-20c-1.8,0-1.5,5-1.5,7.6c0,6.3-0.3,11.4,0.5,12.3c0.2,0.3,0.9,0.2,2.4,0.2   c3,0,6.6,3.4,15.2,3.4c9.7,0.2,17.6-8.8,17.6-20.4C417.4,278.1,415.4,273.5,406.1,267.4"/>
	<path d="M574.8,256.6c1.1,0,3.5-3.9,3.5-5.1c0-1.2-2.4-5.2-3.5-5.2c-1,0-3.5,4.1-3.5,5.2C571.4,252.6,573.8,256.6,574.8,256.6"/>
	<path d="M583.4,301.8c-1.7-0.1-5.3-0.8-5.3-4.4v-36.1c0-1-0.5-1.6-1-1.6c-1.9,0-3.2,3.5-8.6,5.3c-0.4,0.1-1.2,0.2-1.2,0.8   c0,2.1,4.9-2,4.6,5.5v23.7c0.2,6.1-3.1,6.7-5,6.7c-2.7,0-2.1,0.3-2.1,1.2c0.1,1,1.7,1.1,4.5,1.1c0.9,0,3.2-0.4,6-0.4   c3.5,0,6.1,0.4,7.9,0.4C584.3,304,585.7,301.4,583.4,301.8"/>
	<path d="M602.9,279.3c-1.7-0.8-4.1-2.2-5.4-2.9c-5.3-2.9-7.4-4.8-7.5-7.5c-0.2-4.7,3.7-7.1,7.2-6.8c8.3-0.1,9.4,9.1,10.2,9.1   c1.3,0,0.9-1.2,0.9-4c0-0.7,0.1-4.2-0.4-5c-1-1.5-6.9-2.4-8.3-2.4c-0.4,0-1.7,0-2,0c-0.4,0-0.9,0-0.9,0   c-5.9-0.1-11.4,3.6-11.2,11.5c0.2,7.2,8.6,11.3,13.2,14c3.4,1.9,7.4,3.8,7.3,8.4c-0.1,5.3-4.1,8.7-8.5,8.5   c-10.3-0.2-8.9-13.1-10.7-13.1c-1.3,0-1,3.2-1,5c0,4.1-0.2,7.4,0.3,8c0.2,0.2,0.6,0.1,1.6,0.1c2,0,4.5,2.2,10.4,2.2   c6.6,0.1,12.6-6,12.6-13.6C610.7,286.3,609.4,283.3,602.9,279.3"/>
	<path d="M443.9,297.8c-0.9,0.4-2.8,2.5-7.4,2.5c-3.5,0-5.5-2.1-5.7-6.6V265c0,0,10.4,0,11,0c0.7,0,2.1-4.7,2.2-5   c0.1-0.6,0.3-1.1,0.4-1.5c0.1-0.9-0.6-1-1.2,0c-0.5,0.5-1,1.8-3.2,1.8h-9.2c0-7.9,0.1-9.9-1.1-9.9c-1.2,0-1,0.3-2.1,3.8   c-1.8,5.9-8.2,8.4-10.3,9.7c-0.5,0.2-0.5,0.3-0.5,0.6c0,0.7,2.4,0.4,7.6,0.6l0,26.3c0,11.2,5.4,13.2,9.4,13.2   c6.1,0,10.5-4.3,10.7-5.9C444.5,297.8,444.4,297.8,443.9,297.8"/>
	<path d="M178.4,294.2c-1.9,0-4.7,5.3-11.9,5.3c-5.2,0-13.6-5-13.6-21.7h22.5c1.9,0,2.9,0.1,2.9-1.7c0-4.1-4.6-16.2-15-16.2   c-10.6,0-16.6,10.9-16.6,23.9c0,6.7,4.4,20.8,17.1,20.8c7.6,0,15-7.3,15-9.6C178.8,294.6,178.8,294.2,178.4,294.2 M161.8,262.2   c4.7,0,9.4,5.1,9.4,10.8c0,1.5-0.5,2-1.7,2h-16.7C152.9,269.4,156.6,262.2,161.8,262.2z"/>
	<path d="M57.2,237.5c-1.3,0-4.5,0.3-5.9,0.3c-2.9,0-5.3-0.3-8.3-0.3c-0.2,0-1.5,0.2-1.5,0.6c0,2.1,7-0.3,7,8.5v34.5   c0,10.2-3.2,20.9-17.3,20.9c-10.1,0-15.6-6.3-15.6-20.1v-37.6c0-6.2,4.9-4.9,5-6.3c0.1-1.3-4.3-0.5-4.7-0.5c-2.3,0-4,0.2-6.3,0.2   c-2,0-4.5-0.3-6.4-0.3c-0.4,0-1.8-0.1-2,0.5c-0.8,1.8,6.2,0.9,6.2,6v35.6c0,13.3,3.7,26.4,23.4,26c23.3-0.4,22.9-21.3,22.9-25.6   v-33.3c0-8,3.9-7.2,4.6-8.4C58.7,237.7,57.6,237.5,57.2,237.5"/>
	<path d="M150.4,261.9c0.6-0.7,0.7-1.7-1.9-1.5c-1.4,0-2.5,0.3-4,0.3c-1.9,0-2.2-0.1-4-0.1c-2.2-0.1-2.8,0.2-2.7,0.8   c0.4,2,5.1,0,4.4,5.9c-0.5,4.9-2.1,9.1-3.7,13.3l-5.7,15.1l-8.3-25.1c-1-3.1-1.4-4.8-1.4-5.1c0-3.1,3.8-2.4,4.6-3.7   c0.5-0.8-0.6-1.3-1.8-1.3c-1,0-2.2,0.4-5.3,0.4c-2.6,0.1-4.4,0-5.6-0.2c-2.9-0.5-2.7,1.1-1.7,1.6c1,0.5,1.5,0,3,4.4l12.8,36.1   c0.3,0.7,0.6,2.5,1.7,2.5c1.3,0,1.3-1.3,2.9-5.5c0,0,12.2-34.2,13.1-35.4C148.6,261.8,149.8,262.6,150.4,261.9"/>
	<path d="M197.6,260.3c-3.5,0-5.9,4.2-7.6,7.1h-0.2v-6.3c0-1-0.5-1.6-1-1.6c-1.3,0-2.3,2.7-9.4,4.3c-0.4,0.1-1.6,0.3-1.6,0.9   c0,2.1,5.9-0.6,5.9,6.3v26.3c0,4.1-4.2,3.7-4.2,5.8c0,0.6,0.2,0.9,0.9,0.9c0.6,0,2.1-0.4,7.6-0.4c4.6,0,6.6,0.4,7.7,0.4   c0.9,0,1.3-0.2,1.3-1.1c0-3.2-7.3,1.6-7.3-7.7v-22.5c0-1.3,2-5.9,5.4-5.9c3,0,3.3,2.3,4.9,2.3c1,0,3-3,3-4.5   C203.1,262.9,199.4,260.3,197.6,260.3"/>
	<polyline points="288.3,304.3 288.1,304.9 288,305 288.3,304.3  "/>
	<path d="M303.9,260.6c-0.9,0-3.1,0.1-5.2,0.1c-2.5,0-3.7-0.3-4.7-0.3c-1.6,0-3.1,0-2.9,1.1c0.3,1.2,5.7,0.8,5.7,6.6   c0,0.7,0,1.7-1.1,5.6l-6.8,21.6l-9.5-26.6c0,0-0.4-0.9-0.4-2.6c0-4.3,5-3.8,5.2-4.6c0.2-0.6-0.7-1.3-2-1.3c-1.4,0-3.5,0-6.6,0   c-0.5,0-0.9,0-1.4,0c0,0,0,0,0,0h-3.8c-0.1,0-0.1,0-0.1,0h-9.2c0-7.9,0.1-9.9-1.1-9.9c-1.2,0-1,0.3-2.1,3.8   c-1.8,5.9-8.2,8.4-10.3,9.7c-0.5,0.2-0.5,0.3-0.5,0.6c0,0.7,2.5,0.4,7.6,0.6l0,26.3c0,11.2,5.4,13.2,9.4,13.2   c6.1,0,10.5-4.3,10.7-5.9c0-0.9-0.1-1-0.6-0.9c-0.9,0.4-2.8,2.5-7.4,2.5c-3.5,0-5.5-2.1-5.7-6.6V265c0,0,8.2,0,10.5,0   c0.1,0.2,0.2,0.4,0.3,0.6l9.8,27.6c0.8,2.3,1.3,3,2.2,7c0.6,2.6,0.4,4.9,0.4,4.9c-0.9,4.1-3.5,6.5-7.4,14.2   c-0.4,0.7,5.6-0.1,5.9-0.2c0.5-0.1,0.4-0.3,1-1.4l4.3-12.9l12-37c1.8-6.5,4.6-5.3,5-6.2C305.4,261.2,305,260.6,303.9,260.6"/>
	<path d="M243.6,251.5c0-1.2-2.4-5.2-3.5-5.2c-1,0-3.5,4.1-3.5,5.2c0,1.1,2.5,5.1,3.5,5.1C241.2,256.6,243.6,252.7,243.6,251.5"/>
	<path d="M248.8,301.8c-1.7-0.1-5.3-0.8-5.3-4.4v-36.1c0-1-0.5-1.6-1-1.6c-1.9,0-3.2,3.5-8.6,5.3c-0.4,0.1-1.2,0.2-1.2,0.8   c0,2.1,4.9-2,4.6,5.5v23.7c0.2,6.1-3.1,6.7-5,6.7c-2.7,0-2.1,0.3-2.1,1.2c0.1,1,1.7,1.1,4.5,1.1c0.9,0,3.2-0.4,5.9-0.4   c3.5,0,6.1,0.4,7.9,0.4C249.6,304,251,301.4,248.8,301.8"/>
	<path d="M103,251.5c0,1.1,2.5,5.1,3.5,5.1c1.1,0,3.5-3.9,3.5-5.1c0-1.2-2.4-5.2-3.5-5.2C105.5,246.3,103,250.4,103,251.5"/>
	<path d="M115.1,301.8c-1.7-0.1-5.3-0.8-5.3-4.4v-36.1c0-1-0.5-1.6-1-1.6c-1.9,0-3.2,3.5-8.6,5.3c-0.4,0.1-1.2,0.2-1.2,0.8   c0,2.1,4.9-2,4.7,5.5v23.7c0.2,6.1-3.1,6.7-5,6.7c-0.2,0-0.4,0-0.6,0c-1.8-0.3-3.4-1-3.4-5.9v-16.6c0-7.6-2.5-18.8-13.8-18.8   c-8.2,0-12.4,7.8-12.3,6.6v-5.8c0-1-0.5-1.6-1-1.6c-1.9,0-3.4,3.3-10,5.3c-0.4,0.1-1.6,0.1-1.7,0.9c0,2.1,6.6-2.7,6.5,5.5v24.9   c0,6.5-4.4,5-5.4,6.7c-0.5,0.9,0.8,1.1,1.9,1.1c1,0,2.7-0.4,7.2-0.4c4.9,0,6.6,0.4,8,0.4c1.3,0,2.7-0.6,1.9-1.4   c-1.4-1.3-7.4,0.2-7.4-6.7v-23.1c-0.1-1.6,2.9-7.8,10-7.8c6.8,0,9.9,7.5,9.9,12.6v18.8c-0.1,7.4-2.6,5-3.6,6.5   c-0.6,0.8,0.4,1.2,1.5,1.2c1.1,0,2.9-0.4,6.1-0.4c4.1,0,6,0.4,7.1,0.4c0.1,0,0.2,0,0.3,0c0.4,0,0.8,0,1.2,0c0.9,0,3.2-0.4,5.9-0.4   c3.5,0,6.1,0.4,7.9,0.4C115.9,304,117.3,301.4,115.1,301.8"/>
	<path d="M221.9,279.3c-1.7-0.8-4.1-2.2-5.4-2.9c-5.3-2.9-7.4-4.8-7.5-7.5c-0.2-4.7,3.7-7.1,7.2-6.8c8.3-0.1,9.4,9.1,10.2,9.1   c1.3,0,0.9-1.2,0.9-4c0-0.7,0.1-4.2-0.4-5c-1-1.5-6.9-2.4-8.3-2.4c-0.4,0-1.7,0-2,0c-0.4,0-0.9,0-0.9,0   c-5.9-0.1-11.4,3.6-11.2,11.5c0.2,7.2,8.6,11.3,13.2,14c3.4,1.9,7.4,3.8,7.3,8.4c-0.1,5.3-4.1,8.8-8.5,8.5   c-10.3-0.2-8.9-13.1-10.7-13.1c-1.3,0-1,3.2-1,5c0,4.1-0.2,7.4,0.3,8c0.2,0.2,0.7,0.1,1.7,0.1c2,0,4.5,2.2,10.4,2.2   c6.6,0.1,12.6-6,12.6-13.6C229.7,286.2,228.3,283.3,221.9,279.3"/>
	<path fill="#007360" d="M306,7.3L306,7.3C306,7.3,306,7.3,306,7.3c-0.4,0-20.5,0.2-48.6-5.6v81.1c0,1.3,0,2.2,0,2.2V85l0,0.1   c0.2,3.8,1.3,6.8,3.5,9.3c1.5,1.6,3.5,3.2,6.4,4.8c0.8,0.4,1.6,0.9,2.6,1.3c0.7,0.3,1.4,0.6,2.2,1h0c0.6,0.2,2.6,1.1,3.2,1.4   l30.7,11.6l30.7-11.6c0.7-0.2,2.6-1.1,3.2-1.4h0c0.8-0.3,1.5-0.6,2.2-1c0.9-0.4,1.8-0.9,2.6-1.3c2.9-1.6,4.9-3.3,6.4-4.8   c2.2-2.6,3.4-5.6,3.5-9.3l0-0.1v-0.1c0,0,0-0.9,0-2.2V1.7C326.4,7.5,306.4,7.3,306,7.3"/>
	<path fill="#E7D1B9" d="M306,12.1L306,12.1C306,12.1,306,12.1,306,12.1c-0.4,0-18.7,0.2-44.4-5.1v20.7c25.7,5.3,44.1,5.2,44.4,5.1   c0,0,0,0,0,0c0.4,0,18.7,0.2,44.4-5.1V7C324.7,12.3,306.3,12.1,306,12.1"/>
	<path fill="#BC0A40" d="M306,32.8L306,32.8C306,32.8,306,32.8,306,32.8c-0.4,0-18.7,0.2-44.4-5.1v46c25.7,5.3,44.1,5.2,44.4,5.1   c0,0,0,0,0,0c0.4,0,18.7,0.2,44.4-5.1v-46C324.7,33,306.3,32.8,306,32.8"/>
	<path fill="#E7D1B9" d="M261.6,83.2L261.6,83.2c0.2,3.5,1.2,6.2,3.2,8.6c1.4,1.4,3.2,3,5.8,4.4c0.7,0.4,1.5,0.8,2.3,1.2   c0.6,0.3,1.3,0.6,2,0.9c0.6,0.2,2.3,1,2.9,1.2l28,10.6l28-10.6c0.6-0.2,2.4-1,2.9-1.2h0c0.7-0.3,1.4-0.6,2-0.9   c0.8-0.4,1.6-0.8,2.3-1.2c2.6-1.5,4.5-3,5.8-4.4c2-2.3,3.1-5.1,3.2-8.5l0-0.1v-0.1c0,0,0-0.8,0-2v-7.4c-25.7,5.3-44.1,5.2-44.4,5.1   c0,0,0,0,0,0c-0.4,0-18.7,0.2-44.4-5.1v7.4C261.5,82.3,261.5,83.1,261.6,83.2L261.6,83.2"/>
	<polyline fill-rule="evenodd" clip-rule="evenodd" fill="#007360" points="277.2,11.8 279.3,18 285.8,18.1 280.6,22 282.5,28.3    277.2,24.5 271.8,28.3 273.8,22 268.5,18.1 275.1,18 277.2,11.8  "/>
	<polyline fill-rule="evenodd" clip-rule="evenodd" fill="#007360" points="334.7,11.8 336.8,18 343.4,18.1 338.1,22 340.1,28.3    334.7,24.5 329.4,28.3 331.3,22 326.1,18.1 332.6,18 334.7,11.8  "/>
	<polyline fill-rule="evenodd" clip-rule="evenodd" fill="#007360" points="306,14.2 308,20.5 314.6,20.5 309.3,24.4 311.3,30.7    306,26.9 300.6,30.7 302.6,24.4 297.3,20.5 303.9,20.5 306,14.2  "/>
	<polyline fill="#007360" points="306,80.5 303.7,82.8 303.7,89.1 304.8,92.4 304.8,97.9 307.1,97.9 307.1,92.4 308.3,89.1    308.3,82.8 306,80.5  "/>
	<polyline fill="#007360" points="307.1,102.9 307.1,99.6 304.8,99.6 304.8,102.9 303.7,105.1 306,108 308.3,105.1 307.1,102.9  "/>
	<polyline fill="#007360" points="308.7,99.6 308.7,102.2 310.2,103.8 312.8,101.7 312.8,99.6 308.7,99.6  "/>
	<polyline fill="#007360" points="311.5,89.3 308.7,92.4 308.7,97.9 311,97.9 311,94.6 313.2,92.2 313.2,92.2 315.9,94 317.7,92.2    317.7,89.3 311.5,89.3  "/>
	<polyline fill="#007360" points="303.2,99.6 303.2,102.2 301.7,103.8 299.1,101.7 299.1,99.6 303.2,99.6  "/>
	<polyline fill="#007360" points="300.4,89.3 303.2,92.4 303.2,97.9 300.9,97.9 300.9,94.6 298.7,92.2 298.7,92.2 296,94    294.2,92.2 294.2,89.3 300.4,89.3  "/>
	<polyline fill="#E7D1B9" points="327.1,40.1 327.1,66.5 309.4,66.5 306,69.5 303.8,67.6 302.5,66.5 284.8,66.5 284.8,40.1    281,42.9 281,70.3 301.9,70.3 306,73.8 310,70.3 330.9,70.3 330.9,42.9 327.1,40.1  "/>
	<polyline fill="#E7D1B9" points="308.8,37.9 308.1,38.5 306,40.4 303.1,37.9 288.5,37.9 288.5,62.8 303.1,62.8 306,65.3    307.8,63.7 308.8,62.8 323.4,62.8 323.4,37.9 308.8,37.9  "/>
	<path fill="#E7D1B9" d="M334.7,45.7v16.9c4.8-0.7,10.1-1.6,15.7-2.8V42.9C344.8,44.1,339.5,45,334.7,45.7"/>
	<path fill="#E7D1B9" d="M277.2,45.7c-4.8-0.7-10.1-1.6-15.7-2.8v16.9c5.6,1.2,10.9,2.1,15.7,2.8V45.7"/>
	<polyline fill="#007360" points="334.7,78.3 333.1,79.9 333.1,84.3 333.9,86.6 333.9,90.5 335.5,90.5 335.5,86.6 336.3,84.3    336.3,79.9 334.7,78.3  "/>
	<polyline fill="#007360" points="335.5,94 335.5,91.6 333.9,91.6 333.9,94 333.1,95.5 334.7,97.5 336.3,95.5 335.5,94  "/>
	<polyline fill="#007360" points="336.7,91.6 336.7,93.4 337.7,94.6 339.5,93.1 339.5,91.6 336.7,91.6  "/>
	<polyline fill="#007360" points="338.6,84.4 336.7,86.6 336.7,90.5 338.2,90.5 338.2,88.1 339.8,86.5 341.7,87.7 342.9,86.5    342.9,84.4 338.6,84.4  "/>
	<polyline fill="#007360" points="332.8,91.6 332.8,93.4 331.7,94.6 329.9,93.1 329.9,91.6 332.8,91.6  "/>
	<polyline fill="#007360" points="330.8,84.4 332.8,86.6 332.8,90.5 331.2,90.5 331.2,88.1 329.7,86.5 327.7,87.7 326.5,86.5    326.5,84.4 330.8,84.4  "/>
	<polyline fill="#007360" points="277.2,78.3 275.6,79.9 275.6,84.3 276.4,86.6 276.4,90.5 278,90.5 278,86.6 278.8,84.3    278.8,79.9 277.2,78.3  "/>
	<polyline fill="#007360" points="278,94 278,91.6 276.4,91.6 276.4,94 275.6,95.5 277.2,97.5 278.8,95.5 278,94  "/>
	<polyline fill="#007360" points="279.1,91.6 279.1,93.4 280.2,94.6 282,93.1 282,91.6 279.1,91.6  "/>
	<polyline fill="#007360" points="281.1,84.4 279.1,86.6 279.1,90.5 280.7,90.5 280.7,88.1 282.2,86.5 284.2,87.7 285.4,86.5    285.4,84.4 281.1,84.4  "/>
	<polyline fill="#007360" points="275.2,91.6 275.2,93.4 274.2,94.6 272.4,93.1 272.4,91.6 275.2,91.6  "/>
	<polyline fill="#007360" points="273.3,84.4 275.2,86.6 275.2,90.5 273.7,90.5 273.7,88.1 272.1,86.5 270.2,87.7 269,86.5    269,84.4 273.3,84.4  "/>
	<path fill-rule="evenodd" clip-rule="evenodd" d="M237.5,383.2c0,0,7.6-4.5,7.3-12.4c-0.4-7.8-4.4-10.3-7.5-10.3   c-3,0-6.8,2.2-7.1,9.3C229.8,377.6,237.5,383.2,237.5,383.2 M248.9,405.3c-2.9-4-5.9-7.7-9.5-11.4c-2.6-2.8-5.1-5.1-5.1-5.1   s-3,2.3-4.7,4.2c-1.7,1.9-4.3,6.4-3.5,12.5c1.1,8.8,7.1,11,12.5,10.4c5.4-0.6,10.9-9.8,10.9-9.8L248.9,405.3z M266.8,420.8h-8   l-0.6-1l-1.7-2.9c-0.8-1.3-2.6-4.2-5.4-8.4c-6,8.4-9.9,12.5-16.7,12.5c-10.9,0-14.4-9-14.4-16.3c0-4.9,1.8-8.9,4.6-12   c1.8-2,4.2-4,7.2-5.9c-4.2-3.6-6.8-7.4-6.8-12.8c0-10,6.4-16.4,13-16.4c6.4,0,11.7,5.6,11.7,13.9c0,4.1-1.4,6.1-3.5,9   c-1.3,1.6-3.6,4-5.8,5.8c-0.4,0.3,5.4,6.1,6,6.8l6.6,7.6c0,0,7.2-14.3,6-16.4c-1-1.8-6.1-2.1-6.1-2.1l0-2.6h18.3l0,2.6   c-1.4,0-4.4,0.5-6.7,2.9c-1.1,1.1-9.4,17.6-9.4,17.6s6.1,8.6,6.8,9.7c0,0,1,1.6,1.5,2.3l0.5,0.6   C265.1,417.3,265.1,417.9,266.8,420.8z"/>
	<path fill-rule="evenodd" clip-rule="evenodd" d="M105.3,380c0-2.8,0.2-2.9,3.9-2.9c4.6,0,8.5,3,8.5,9.7c0,3.1-0.9,7-3.1,8.7   c-1.7,1.3-3.8,1.6-5.5,1.6h-3.8V380 M105.3,399.9h2.5c2.3,0,2.9,0.3,4.1,2.7c1.4,2.8,3.7,7.8,5.7,11c2.3,3.7,5.3,6.4,12.2,6.3h1.2   l0.2-2c-1.8-0.7-3.3-1.8-4.3-3c-1.4-1.6-2.9-3.8-4.9-7.3c-1.7-3-4.5-7.9-5.4-10c4.6-2,8-5.5,8-11.7c0-4.4-1.7-7.6-4.1-9.3   c-2.4-1.7-5.6-2.3-9.4-2.3h-18v2.3c5.1,0.5,5.6,0.9,5.6,8.4v23.6c0,7.4-0.5,7.9-5.9,8.4v2.3h18.1V417c-5.3-0.5-5.8-1-5.8-8.4V399.9   z"/>
	<path d="M145.8,408.6c0,7.4-0.5,7.9-6.2,8.4v2.3h19.1V417c-6-0.5-6.5-1-6.5-8.4v-31.3h3.7c3.6,0,5.5,0.6,6.6,1.9   c0.9,1.1,1.5,2.9,2.2,7.1l2.1-0.2c-0.3-4.3-0.7-10.7-0.7-13.5H165c-0.9,1.3-1.2,1.7-2.8,1.7h-25.7c-1.6,0-2.2-0.2-3.1-1.7h-1.1   c-0.1,3.5-0.5,8.5-0.7,13.7h2c0.7-3.8,1.5-5.7,2.2-6.7c0.9-1.2,2.6-2.3,7.5-2.3h2.6V408.6"/>
	<path d="M169.7,404.9c0.7,4.3,1.5,10.1,1.9,11.6c1.4,1.1,5.3,3.5,10.5,3.5c8.1,0,14.1-5.8,14.1-14.2c-0.1-8.5-6-11.7-11.6-14.2   c-3.7-1.7-7.7-3.6-7.7-8.7c0-3.8,2.3-7.3,6.5-7.3c4.8,0,7.7,4.4,8.9,10.2l2.1-0.2c-0.6-4.7-0.9-8.3-1.5-11.2   c-1.5-0.5-4.4-1.8-8.2-1.8c-8.1,0-13.3,5.6-13.3,13.5c0,7.9,6.6,11,10.8,13c3.8,1.8,8.1,4.1,8.1,9.8c0,4.9-2.9,8.1-7.5,8.1   c-5.5,0-9.8-7.1-10.9-12.3L169.7,404.9"/>
	<path fill-rule="evenodd" clip-rule="evenodd" d="M64.4,368.7l7.4,21.8l-14.2,0L64.4,368.7 M60.1,372.5l-11.6,34.1   c-2.9,9-3.6,9.6-8.9,10.3v2.3h17.7v-2.3l-2.9-0.2c-3.7-0.4-4.3-1.6-2.8-7.5c1.2-4.2,3.9-12.3,4.7-14.9l16.5,0   c2.3,7.3,4.7,15.2,5.3,17.6c0.8,3.1,0.5,4.2-2.6,4.6l-2.7,0.4v2.3h20v-2.3c-5.1-0.5-6.2-1.2-8.9-9.7c-3.2-10.3-16.7-50.5-16.7-50.5   l-1.9,0.9L60.1,372.5z"/>
	<path d="M288.4,403.1c0.8,5.1,1.6,11.8,2.2,14.2c0.9,0.5,2.3,1.2,4.3,2c1.9,0.8,4.6,1.4,7.3,1.4c9.8,0,17.2-8.6,17.2-19.5   c0-11.7-8.2-16-13.3-18.7c-5.9-3.2-9.9-5.3-9.9-12.3c0-5.6,2.7-10.3,8.2-10.3c7,0,9.4,6.4,10.7,12l1.9-0.3   c-0.6-5.7-1.1-9.4-1.4-12.7c-0.9-0.2-1.9-0.7-2.9-1c-1.6-0.7-4.3-1.2-6.4-1.2c-10.1,0-15.9,8-15.9,17.4c0,11.3,10.5,16,13,17.5   c4.9,2.9,9.9,6,9.9,14c0,7.4-4.6,12-10.4,12c-8.2,0-11.3-10.3-12.5-14.8L288.4,403.1"/>
	<path d="M358.9,386.4c-0.4-4.5-0.7-8.2-1.1-12c-2.1-0.6-6.1-1.8-11.7-1.8c-12.6,0-22.4,9.8-22.4,24.2c0,11.5,6.8,23.2,21.7,23.2   c4.6,0,10-1.4,11.8-1.9c0.9-2.6,2.2-8.8,3.1-12.6l-2.1-0.4c-3.1,7.9-6.2,11.9-12.3,11.9c-8.9,0-14.7-8.7-14.7-21.6   c0-11.3,5-19.8,14.1-19.8c5.7,0,9.9,2.5,11.6,11.1L358.9,386.4"/>
	<path d="M377.2,384.5c0-7.5,0.5-7.9,5.8-8.4v-2.3h-18.1v2.3c5.3,0.5,5.8,0.9,5.8,8.4v23.6c0,7.4-0.5,7.9-5.8,8.4v2.3H383v-2.3   c-5.3-0.5-5.8-1-5.8-8.4V384.5"/>
	<path d="M394.1,408c0,7.5-0.4,8-6.2,8.5v2.3h31.3c0.5-1.9,1.7-9.2,2.2-11.8l-2.2-0.3c-0.8,3.4-2,5.7-3,6.9c-1.3,1.6-4,2.2-7.5,2.2   c-3.7,0-5.5-0.1-6.6-0.8c-1.2-0.7-1.6-2.9-1.6-6.9v-11h6.5c5.2,0,5.4,0.3,6,5.9h2.1v-14.8h-2.1c-0.7,5.2-0.8,5.6-6,5.6h-6.5v-14.3   c0-2.5,0.1-2.5,2.4-2.5h4.6c4,0,5.8,1,6.6,2s1.5,2.9,2.1,6.5l2.1-0.2c-0.3-4.6-0.6-9.4-0.7-11.3h-29.2v2.3c5.2,0.4,5.6,0.9,5.6,8.4   V408"/>
	<path d="M461.9,392.9c0-7.3,0.2-10.8,0.5-13c0.3-2.4,2.1-3.5,5.5-3.7v-2.3h-15.8v2.3c4.1,0.3,6,1.3,6.3,3.7c0.2,2.2,0.5,5.8,0.5,13   v13.9h-0.2l-24.6-33H424v2.3c5.6,0.5,7,2,7,10.1v13.5c0,7.3-0.2,10.8-0.5,12.9c-0.3,2.4-2.1,3.6-5.5,3.8v2.3h15.7v-2.3   c-4.1-0.3-6-1.4-6.2-3.8c-0.2-2.1-0.5-5.7-0.5-12.9V385h0.1l25.3,34.3h2.7V392.9"/>
	<path d="M504.5,386.4c-0.4-4.5-0.7-8.2-1.1-12c-2.1-0.6-6.1-1.8-11.7-1.8c-12.6,0-22.4,9.8-22.4,24.2c0,11.5,6.8,23.2,21.7,23.2   c4.6,0,10-1.4,11.8-1.9c0.9-2.6,2.2-8.8,3.1-12.6l-2.1-0.4c-3.1,7.9-6.2,11.9-12.3,11.9c-8.9,0-14.7-8.7-14.7-21.6   c0-11.3,5-19.8,14.1-19.8c5.7,0,9.9,2.5,11.6,11.1L504.5,386.4"/>
	<path d="M514.8,408c0,7.5-0.4,8-6.2,8.5v2.3h31.3c0.5-1.9,1.7-9.2,2.2-11.8l-2.2-0.3c-0.8,3.4-2,5.7-3,6.9c-1.3,1.6-4,2.2-7.5,2.2   c-3.7,0-5.5-0.1-6.6-0.8c-1.2-0.7-1.6-2.9-1.6-6.9v-11h6.5c5.2,0,5.4,0.3,6,5.9h2.1v-14.8h-2.1c-0.7,5.2-0.8,5.6-6,5.6h-6.5v-14.3   c0-2.5,0.1-2.5,2.4-2.5h4.6c4,0,5.8,1,6.6,2c0.8,1,1.5,2.9,2.1,6.5l2.1-0.2c-0.3-4.6-0.6-9.4-0.7-11.3h-29.2v2.3   c5.2,0.4,5.6,0.9,5.6,8.4V408"/>
	<path d="M545.8,404.9c0.7,4.3,1.5,10.1,1.9,11.6c1.4,1.1,5.3,3.5,10.5,3.5c8.1,0,14.1-5.8,14.1-14.2c-0.1-8.5-6-11.7-11.6-14.2   c-3.7-1.7-7.7-3.6-7.7-8.7c0-3.8,2.3-7.3,6.5-7.3c4.8,0,7.7,4.4,8.9,10.2l2.1-0.2c-0.6-4.7-0.9-8.3-1.5-11.2   c-1.5-0.5-4.4-1.8-8.2-1.8c-8.1,0-13.3,5.6-13.3,13.5c0,7.9,6.6,11,10.8,13c3.8,1.8,8.1,4.1,8.1,9.8c0,4.9-2.9,8.1-7.5,8.1   c-5.5,0-9.8-7.1-10.9-12.3L545.8,404.9"/>
</g>
</svg>